<?xml version="1.0" encoding="UTF-8"?>
<svg width="46px" height="46px" viewBox="0 0 46 46" version="1.1" xmlns="http://www.w3.org/2000/svg" xmlns:xlink="http://www.w3.org/1999/xlink">
    <!-- Generator: Sketch 51.3 (57544) - http://www.bohemiancoding.com/sketch -->
    <title>info-step/1</title>
    <desc>Created with Sketch.</desc>
    <defs></defs>
    <g id="info-step/1" stroke="none" stroke-width="1" fill="none" fill-rule="evenodd">
        <g id="doctor" transform="translate(3.000000, 2.000000)" fill="#D1D1D1" fill-rule="nonzero">
            <path d="M29.1555556,34.6222222 C28.14917,34.6222222 27.3333333,33.8063855 27.3333333,32.8 C27.3333333,31.7936145 28.14917,30.9777778 29.1555556,30.9777778 C30.1619411,30.9777778 30.9777778,31.7936145 30.9777778,32.8 C30.9777778,33.8063855 30.1619411,34.6222222 29.1555556,34.6222222 Z M14.5777778,27.3112903 C12.8242854,26.9953405 11.2558349,27.1129032 10.0222222,27.3333333 C10.6654631,26.7675627 11.4584999,26.4222222 12.3132173,26.4222222 C13.1415001,26.4222222 13.9257253,26.7675627 14.5777778,27.3112903 Z M40.9668558,37.5884321 C41.2263537,39.3795053 39.9288644,41 38.2379428,41 L2.73696055,41 C1.07115166,41 -0.226337667,39.3795053 0.0331601992,37.5884321 C1.07115166,30.2962059 5.3654228,24.1639126 11.3003901,20.9740967 C11.0743759,21.9378646 10.8734743,23.2598471 10.9404415,24.8547551 C8.24501203,25.4858952 6.1606582,28.897463 6.1606582,33.0084023 C6.1606582,34.6033103 6.45363966,36.1299869 7.03960258,37.4519694 C7.36606764,38.347506 8.60496068,38.7142495 9.15744001,38.7142495 C10.0280135,38.7142495 10.7479108,37.9551757 10.7479108,36.9914078 C10.7479108,36.0276398 10.0363844,35.268566 9.15744001,35.268566 C8.88957124,35.268566 8.53799349,35.3367974 8.14456124,35.4988468 C7.44977663,33.2983856 8.01062686,30.8591145 8.30360832,29.963578 C9.34997068,29.5030163 12.2128181,28.5051327 15.3351634,29.963578 C15.6532576,30.8591145 16.1638824,33.5286664 15.4942105,35.4988468 C15.1007782,35.3367974 14.7408296,35.268566 14.4813317,35.268566 C13.6107582,35.268566 12.8908609,36.0276398 12.8908609,36.9914078 C12.8908609,37.9551757 13.6023873,38.7142495 14.4813317,38.7142495 C15.0672946,38.7142495 16.3313004,38.3219192 16.6326527,37.3496224 C17.1851321,36.0617555 17.4781135,34.5350789 17.4781135,33.0084023 C17.4781135,28.8633474 15.3602761,25.4176638 12.5978795,24.8547551 C12.4974287,22.4325419 13.049908,20.8120472 13.3428895,20.1467915 C15.1928581,22.0657984 17.7376114,23.2598471 20.500008,23.2598471 C23.3293719,23.2598471 25.8741251,22.0316827 27.7575774,20.0444444 C27.9919625,20.1467915 28.2179768,20.2406096 28.4439911,20.3429566 C28.6365218,21.5028897 29.3229355,26.0488039 28.4774747,29.5627188 C27.0711637,29.9294623 26.0331722,31.2599738 26.0331722,32.8804685 C26.0331722,34.739773 27.4311123,36.2579207 29.1890011,36.2579207 C30.9468899,36.2579207 32.34483,34.7738887 32.34483,32.8804685 C32.34483,31.3879076 31.432402,30.1256275 30.193509,29.6650658 C30.8129555,26.6799439 30.5534576,23.2939628 30.2939597,21.3067246 C35.8940911,24.5562429 39.962348,30.5264867 40.9668558,37.5884321 Z M20.4836947,21.8666667 C15.7006342,21.8666667 11.8118337,17.6985127 11.8446506,12.4925051 C11.8446506,11.7727034 11.9348971,11.0947507 12.0661646,10.4084281 C12.0661646,10.4084281 16.1190494,9.11111111 20.4836947,9.11111111 C24.8565441,9.11111111 28.9340416,10.4084281 28.9340416,10.4084281 C29.0899218,11.0947507 29.1555556,11.7727034 29.1555556,12.4925051 C29.1555556,17.6734033 25.2667551,21.8666667 20.4836947,21.8666667 Z M28.2994965,8.2 C23.1961732,6.8670537 17.795569,6.8670537 12.7005035,8.2 C12.1224572,5.88321239 11.5113797,3.54262216 10.9333333,1.22583454 C17.1927492,-0.408611514 23.798993,-0.408611514 30.0666667,1.22583454 C29.4886203,3.54262216 28.910574,5.88321239 28.2994965,8.2 Z M18.1506546,2.8602806 L18.1506546,4.28050314 L19.7856999,4.28050314 L19.7856999,5.94668602 L21.1977845,5.94668602 L21.1977845,4.28050314 L22.8328298,4.28050314 L22.8328298,2.8602806 L21.1977845,2.8602806 L21.1977845,1.19409773 L19.7856999,1.19409773 L19.7856999,2.8602806 L18.1506546,2.8602806 Z" id="Combined-Shape"></path>
        </g>
    </g>
</svg>