<?xml version="1.0" encoding="UTF-8"?>
<svg width="46px" height="46px" viewBox="0 0 46 46" version="1.1" xmlns="http://www.w3.org/2000/svg" xmlns:xlink="http://www.w3.org/1999/xlink">
    <!-- Generator: Sketch 51.3 (57544) - http://www.bohemiancoding.com/sketch -->
    <title>info-step/2</title>
    <desc>Created with Sketch.</desc>
    <defs></defs>
    <g id="info-step/2" stroke="none" stroke-width="1" fill="none" fill-rule="evenodd">
        <g id="timer-silhouette" transform="translate(4.000000, 1.000000)" fill="#D1D1D1" fill-rule="nonzero">
            <path d="M15.9530698,3.94251357 C15.3543875,3.94251357 14.8645565,3.44474473 14.8654636,2.83728238 L14.8654636,1.10523118 C14.8654636,0.497768839 15.3552946,0 15.9530698,0 L22.1521532,0 C22.7499284,0 23.2388523,0.497768839 23.2388523,1.10523118 L23.2388523,2.83728238 C23.2388523,3.44474473 22.7499284,3.94251357 22.1521532,3.94251357 L15.9530698,3.94251357 Z M19,5.38051243 C29.4769407,5.38051243 37.9990929,14.042612 38,24.6902562 C38,35.3379004 29.4769407,44 19,44 C8.5230593,44 0,35.3379004 0,24.6902562 C0,19.5715333 1.98381553,14.924769 5.19402273,11.4652756 L8.29628569,15.5423711 C6.25078774,18.0210756 5.01532512,21.2104833 5.01532512,24.6902562 C5.01532512,32.5586911 11.3114676,38.9550206 19.0526115,38.9550206 C26.7937554,38.9550206 33.0898978,32.5559257 33.0898978,24.6902562 C33.0898978,16.8245868 26.7928483,10.4254918 19.0526115,10.4254918 C15.4405614,10.4254918 12.1541583,11.8303061 9.66418409,14.1154338 L5.53327604,11.0845746 C8.97751361,7.56424277 13.7415736,5.38051243 19,5.38051243 Z M19.1424138,27.8658371 C20.8023966,27.8658371 22.1467106,26.4997381 22.1439893,24.816542 C22.1439893,23.7076237 21.5561921,22.7461924 20.6844744,22.2133953 L20.6899169,22.206021 L11.7849709,15.6714223 C13.765158,14.020489 16.2959515,13.0277167 19.0507973,13.0277167 C25.3768739,13.0277167 30.5246348,18.2598203 30.5246348,24.6893344 C30.5246348,31.1179268 25.3786881,36.3481868 19.0507973,36.3481868 C12.7229065,36.3481868 7.57514561,31.1197704 7.57514561,24.6893344 C7.57514561,22.0511596 8.45139884,19.6231538 9.91091378,17.6671066 L16.7767115,26.6905495 L16.7821541,26.6831752 C17.3336675,27.3966438 18.1808937,27.8658371 19.1424138,27.8658371 Z" id="Combined-Shape"></path>
        </g>
    </g>
</svg>