<?xml version="1.0" encoding="UTF-8"?>
<svg width="46px" height="46px" viewBox="0 0 46 46" version="1.1" xmlns="http://www.w3.org/2000/svg" xmlns:xlink="http://www.w3.org/1999/xlink">
    <!-- Generator: Sketch 51.3 (57544) - http://www.bohemiancoding.com/sketch -->
    <title>info-step/3</title>
    <desc>Created with Sketch.</desc>
    <defs></defs>
    <g id="info-step/3" stroke="none" stroke-width="1" fill="none" fill-rule="evenodd">
        <g id="24-hours-phone-service" transform="translate(2.000000, 3.000000)" fill="#D1D1D1" fill-rule="nonzero">
            <path d="M23.8394293,0 C17.3622397,0 11.62954,3.21345947 8.15953923,8.11726523 C8.87768122,8.58286458 9.57769576,9.22135295 10.2547348,10.0421568 C12.8434466,6.19537613 17.0291303,3.49646399 21.8720393,2.91628028 L23.8391483,6.22442372 L25.8062573,2.91621045 C33.2505954,3.80781785 39.1678718,9.68813934 40.0654615,17.0862672 L36.736124,19.0414633 L40.0655317,20.9967292 C39.4654992,25.9429193 36.6151339,30.2012541 32.5713783,32.753462 C32.8289566,33.3369973 32.9740465,33.9336599 32.9996919,34.5488265 C33.0185922,34.9983658 32.9719386,35.423117 32.8781396,35.8263618 C38.8973653,32.6121343 43,26.2950515 43,19.0418124 C43,8.54187675 34.4048501,0 23.8394293,0 Z M28.7289919,31.3600155 C24.3120077,27.8321997 23.0768821,29.5663269 21.0727453,31.5577626 C19.6735594,32.9487651 16.1328053,30.0440759 13.0755201,27.0056003 C10.0180241,23.9667056 7.09578131,20.448456 8.49482673,19.0577328 C10.499104,17.0662272 12.2435546,15.8380588 8.69275316,11.4496383 C5.14314615,7.05961175 2.776882,10.4299701 0.835488663,12.3594702 C-1.40585068,14.5861496 0.717379214,22.8840545 8.96958316,31.0863677 C17.2229113,39.2875637 25.5724976,41.3962372 27.8125019,39.1703958 C29.7536845,37.2408258 33.1460464,34.8895072 28.7289919,31.3600155 Z M15.2766699,22.021774 C15.2766699,18.1199006 19.8731721,17.4247834 19.8731721,15.902159 C19.8731721,15.1633307 19.2780579,14.8531639 18.7276299,14.8531639 C17.7160762,14.8531639 17.1513852,15.9761745 17.1513852,15.9761745 L15.2177206,14.6903298 C15.2177206,14.6903298 16.1994834,12.4140043 18.9658864,12.4140043 C20.7059807,12.4140043 22.5948888,13.4044852 22.5948888,15.6511347 C22.5948888,18.9474776 18.3111904,19.5833126 18.2367133,20.9431727 L22.7587384,20.9431727 L22.7587384,23.1602161 L15.3959035,23.1602161 C15.3213562,22.7464276 15.2766699,22.3771182 15.2766699,22.021774 Z M23.8461042,19.036366 L27.9517601,12.5910829 L31.1346727,12.5910829 L31.1346727,18.4597434 L32.398746,18.4597434 L32.398746,20.6027713 L31.1346727,20.6027713 L31.1346727,23.1603557 L28.5611374,23.1603557 L28.5611374,20.6027713 L23.8461744,20.6027713 L23.8461744,19.036366 L23.8461042,19.036366 Z M28.5610671,18.4596736 L28.5610671,16.0945993 C28.5610671,15.5179767 28.6504396,14.9117479 28.6504396,14.9117479 L28.6206488,14.9117479 C28.6206488,14.9117479 28.3978498,15.562386 28.1000117,16.0058505 L26.4940464,18.4302071 L26.4940464,18.4598133 L28.5610671,18.4596736 Z" id="Shape"></path>
        </g>
    </g>
</svg>