<?xml version="1.0" encoding="UTF-8"?>
<svg width="353px" height="353px" viewBox="0 0 353 353" version="1.1" xmlns="http://www.w3.org/2000/svg" xmlns:xlink="http://www.w3.org/1999/xlink">
    <!-- Generator: Sketch 51.3 (57544) - http://www.bohemiancoding.com/sketch -->
    <title>Oval 4</title>
    <desc>Created with Sketch.</desc>
    <defs></defs>
    <g id="Project" stroke="none" stroke-width="1" fill="none" fill-rule="evenodd">
        <circle id="Oval-4" fill="#FFFFFF" cx="176.5" cy="176.5" r="176.5"></circle>
        <path d="M180.579592,236.839463 L173.718367,236.839463 C174.499324,222.760184 176.256449,211.111432 178.989796,201.892857 C181.723143,192.674282 187.384991,179.852274 195.97551,163.42645 C202.669421,150.799795 207.020398,141.106469 209.028571,134.346181 C211.036745,127.585893 212.040816,120.741902 212.040816,113.814003 C212.040816,99.6229842 208.275548,88.3373828 200.744898,79.95686 C193.214248,71.5763372 183.982368,67.3861386 173.04898,67.3861386 C163.342809,67.3861386 155.700708,69.6767805 150.122449,74.258133 C144.54419,78.8394854 141.755102,83.8118544 141.755102,89.175389 C141.755102,93.3097802 143.428555,98.3938878 146.77551,104.427864 C150.122466,110.461841 151.795918,115.043124 151.795918,118.171853 C151.795918,122.194504 150.512938,125.574597 147.946939,128.312235 C145.38094,131.049872 142.257161,132.41867 138.57551,132.41867 C133.889772,132.41867 129.622468,130.100094 125.773469,125.462871 C121.924471,120.825649 120,114.372743 120,106.10396 C120,93.477306 125.41083,82.3034432 136.232653,72.5820368 C147.054476,62.8606303 161.725077,58 180.244898,58 C203.227326,58 220.129198,64.7043177 230.95102,78.1131542 C238.983714,87.9463009 243,98.8408172 243,110.79703 C243,118.954072 241.187093,127.334469 237.561224,135.938472 C233.935356,144.542476 227.046309,154.654822 216.893878,166.275813 C200.716926,184.601223 190.815664,197.590839 187.189796,205.24505 C183.563927,212.89926 181.360548,223.430626 180.579592,236.839463 Z M178.236735,257.623055 C183.480298,257.623055 187.914948,259.438808 191.540816,263.070368 C195.166685,266.701928 196.979592,271.143538 196.979592,276.395332 C196.979592,281.535386 195.138794,285.921128 191.457143,289.552687 C187.775492,293.184247 183.368733,295 178.236735,295 C173.104736,295 168.725868,293.184247 165.1,289.552687 C161.474132,285.921128 159.661224,281.535386 159.661224,276.395332 C159.661224,271.143538 161.474132,266.701928 165.1,263.070368 C168.725868,259.438808 173.104736,257.623055 178.236735,257.623055 Z" id="?" fill="#F5F3F3"></path>
    </g>
</svg>