<?xml version="1.0" encoding="UTF-8"?>
<svg width="36px" height="36px" viewBox="0 0 36 36" version="1.1" xmlns="http://www.w3.org/2000/svg" xmlns:xlink="http://www.w3.org/1999/xlink">
    <!-- Generator: Sketch 51.3 (57544) - http://www.bohemiancoding.com/sketch -->
    <title>clinic-tab/1</title>
    <desc>Created with Sketch.</desc>
    <defs></defs>
    <g id="clinic-tab/1" stroke="none" stroke-width="1" fill="none" fill-rule="evenodd">
        <rect id="Rectangle-4" x="0" y="0" width="36" height="36"></rect>
        <g id="hospital-buildings" transform="translate(1.000000, 8.000000)" fill="#809AA7" fill-rule="nonzero">
            <path d="M32.1601397,21.0481641 L32.1601397,6.62418412 C32.1601397,5.94042132 31.6226443,5.38620967 30.9599492,5.38620967 L24.2801122,5.38620967 L24.2801122,20.7389489 C24.2801122,20.9854301 24.2369398,21.2211464 24.1606687,21.4409008 L23.3770912,21.4409008 C23.4170256,21.3176602 23.439691,21.1855106 23.439691,21.0481641 L23.439691,1.23797445 C23.439691,0.55421165 22.9021957,0 22.2395006,0 L11.7597799,0 C11.0970848,0 10.5599492,0.55421165 10.5599492,1.23797445 L10.5599492,21.0481641 C10.5599492,21.1855106 10.5826147,21.3176602 10.6225491,21.4409008 L9.83933125,21.4409008 C9.76306016,21.2211464 9.71988784,20.9854301 9.71988784,20.7389489 L9.71988784,5.38620967 L3.20014814,5.38620967 C2.53745304,5.38620967 2.00031744,5.94042132 2.00031744,6.62418412 L2.00031744,21.0481641 C2.00031744,21.1855106 2.02298291,21.3176602 2.06255754,21.4409008 L0,21.4409008 L0,24 L34,24 L34,21.4409008 L32.0975398,21.4409008 C32.1374742,21.3176602 32.1601397,21.1855106 32.1601397,21.0481641 Z M3.87975239,16.3843227 L3.87975239,14.6099545 L5.59980953,14.6099545 L5.59980953,16.3843227 L3.87975239,16.3843227 Z M5.59980953,13.2687846 L3.87975239,13.2687846 L3.87975239,11.4940452 L5.59980953,11.4940452 L5.59980953,13.2687846 Z M5.59980953,10.2560708 L3.87975239,10.2560708 L3.87975239,8.48133139 L5.59980953,8.48133139 L5.59980953,10.2560708 Z M8.280091,16.3843227 L6.56003386,16.3843227 L6.56003386,14.6099545 L8.280091,14.6099545 L8.280091,16.3843227 Z M8.280091,13.2687846 L6.56003386,13.2687846 L6.56003386,11.4940452 L8.280091,11.4940452 L8.280091,13.2687846 Z M8.280091,10.2560708 L6.56003386,10.2560708 L6.56003386,8.48133139 L8.280091,8.48133139 L8.280091,10.2560708 Z M19.670028,21.3581217 L14.619946,21.3581217 L14.619946,14.8575494 L19.670028,14.8575494 L19.670028,21.3581217 Z M16.9998201,11.2857364 C14.6638379,11.2857364 12.7700122,9.33170415 12.7700122,6.92145884 C12.7700122,4.51084233 14.6641977,2.5568101 16.9998201,2.5568101 C19.3361621,2.5568101 21.2299878,4.51084233 21.2299878,6.92145884 C21.2299878,9.33207535 19.3361621,11.2857364 16.9998201,11.2857364 Z M27.9198984,16.3843227 L26.200201,16.3843227 L26.200201,14.6099545 L27.9198984,14.6099545 L27.9198984,16.3843227 Z M27.9198984,13.2687846 L26.200201,13.2687846 L26.200201,11.4940452 L27.9198984,11.4940452 L27.9198984,13.2687846 Z M27.9198984,10.2560708 L26.200201,10.2560708 L26.200201,8.48133139 L27.9198984,8.48133139 L27.9198984,10.2560708 Z M30.5998201,16.3843227 L28.8801227,16.3843227 L28.8801227,14.6099545 L30.5998201,14.6099545 L30.5998201,16.3843227 Z M30.5998201,13.2687846 L28.8801227,13.2687846 L28.8801227,11.4940452 L30.5998201,11.4940452 L30.5998201,13.2687846 Z M30.5998201,10.2560708 L28.8801227,10.2560708 L28.8801227,8.48133139 L30.5998201,8.48133139 L30.5998201,10.2560708 Z M18.0230508,6.3585029 L19.3396963,6.3585029 L19.3396963,8.11915646 L18.0230508,8.11915646 L18.0230508,9.47826274 L16.3166455,9.47826274 L16.3166455,8.11915646 L15,8.11915646 L15,6.3585029 L16.3166455,6.3585029 L16.3166455,5 L18.0230508,5 L18.0230508,6.3585029 Z" id="Shape"></path>
        </g>
    </g>
</svg>