<?xml version="1.0" encoding="UTF-8"?>
<svg width="36px" height="36px" viewBox="0 0 36 36" version="1.1" xmlns="http://www.w3.org/2000/svg" xmlns:xlink="http://www.w3.org/1999/xlink">
    <!-- Generator: Sketch 51.3 (57544) - http://www.bohemiancoding.com/sketch -->
    <title>clinic-tab/2</title>
    <desc>Created with Sketch.</desc>
    <defs></defs>
    <g id="clinic-tab/2" stroke="none" stroke-width="1" fill="none" fill-rule="evenodd">
        <rect id="Rectangle-4" x="0" y="0" width="36" height="36"></rect>
        <path d="M30.1397826,9.86526977 L29.5570652,9.86526977 L29.5570652,8.94782968 C29.5570652,8.72469042 29.3746196,8.54388459 29.1494565,8.54388459 L26.8668478,8.54388459 C26.6416848,8.54388459 26.4592391,8.72469042 26.4592391,8.94782968 L26.4592391,9.86526977 L24.4347283,9.86526977 L24.4347283,8.84070345 C24.4347283,7.27436597 23.1488043,6 21.5682609,6 L16.4315761,6 C14.8510326,6 13.5651087,7.27436597 13.5651087,8.84070345 L13.5651087,9.86526977 L11.5407609,9.86526977 L11.5407609,8.94782968 C11.5407609,8.72469042 11.3583152,8.54388459 11.1331522,8.54388459 L8.85054348,8.54388459 C8.62538043,8.54388459 8.44293478,8.72469042 8.44293478,8.94782968 L8.44293478,9.86526977 L7.86021739,9.86526977 C5.72826087,9.86526977 4,11.5779969 4,13.6907913 L4,27.1744784 C4,29.2872728 5.72826087,31 7.86021739,31 L30.1397826,31 C32.2717391,31 34,29.2872728 34,27.1744784 L34,13.6907913 C34,11.5779969 32.2717391,9.86526977 30.1397826,9.86526977 Z M15.1955435,8.84070345 C15.1955435,8.16530726 15.7500543,7.61578036 16.4315761,7.61578036 L21.5682609,7.61578036 C22.2497826,7.61578036 22.8042935,8.16530726 22.8042935,8.84070345 L22.8042935,9.86526977 L15.1955435,9.86526977 L15.1955435,8.84070345 Z M19,27.3231302 C15.16,27.3231302 12.0470109,24.2381208 12.0470109,20.4326349 C12.0470109,16.627149 15.16,13.5421396 19,13.5421396 C22.84,13.5421396 25.9529891,16.627149 25.9529891,20.4326349 C25.9529891,24.2381208 22.84,27.3231302 19,27.3231302 Z M24.219837,22.1248417 C24.219837,22.2319679 24.1771196,22.3347315 24.1008152,22.4106732 C24.0243478,22.4864533 23.9208152,22.5291099 23.8127174,22.5292715 L21.1200543,22.5316951 L21.1200543,25.1999948 C21.1200543,25.4231341 20.9376087,25.6039399 20.7124457,25.6039399 L17.2875543,25.6039399 C17.0623913,25.6039399 16.8799457,25.4231341 16.8799457,25.1999948 L16.8799457,22.535573 L14.1913587,22.5379967 C14.1911957,22.5379967 14.1911957,22.5379967 14.1910326,22.5379967 C14.0830978,22.5379967 13.9795652,22.4955017 13.9030978,22.4200447 C13.8266304,22.3442646 13.783587,22.2416626 13.7834239,22.1345363 L13.7803261,18.7405897 C13.780163,18.5174504 13.9624457,18.336483 14.1876087,18.3363214 L16.8801087,18.3338978 L16.8801087,15.6652749 C16.8801087,15.4421357 17.0625543,15.2613299 17.2877174,15.2613299 L20.7124457,15.2613299 C20.9376087,15.2613299 21.1200543,15.4421357 21.1200543,15.6652749 L21.1200543,18.3296968 L23.8086413,18.3272731 C23.8088043,18.3272731 23.8089674,18.3272731 23.8089674,18.3272731 C24.0339674,18.3272731 24.216413,18.5079173 24.2165761,18.730895 L24.219837,22.1248417 Z" id="Shape" fill="#809AA7" fill-rule="nonzero"></path>
    </g>
</svg>