<?xml version="1.0" encoding="UTF-8"?>
<svg width="36px" height="36px" viewBox="0 0 36 36" version="1.1" xmlns="http://www.w3.org/2000/svg" xmlns:xlink="http://www.w3.org/1999/xlink">
    <!-- Generator: Sketch 51.3 (57544) - http://www.bohemiancoding.com/sketch -->
    <title>clinic-tab/3</title>
    <desc>Created with Sketch.</desc>
    <defs></defs>
    <g id="clinic-tab/3" stroke="none" stroke-width="1" fill="none" fill-rule="evenodd">
        <rect id="Rectangle-4" x="0" y="0" width="36" height="36"></rect>
        <g id="doctor" transform="translate(7.000000, 4.000000)" fill="#809AA7" fill-rule="nonzero">
            <path d="M12,0 C15.0544987,0 17.5385182,2.49409852 17.5384615,5.55971387 L17.5384615,8.44005853 C17.5384615,11.5059015 15.0544987,14 12,14 C8.94572804,14 6.46153846,11.5059015 6.46153846,8.44005853 L6.46153846,5.55971387 C6.46153846,2.49409852 8.94572804,0 12,0 Z M23.9699992,21.0503791 C24.0100003,21.117329 24.0100003,21.2005225 23.9699992,21.2676919 C21.5028253,25.4203429 16.9160418,28 11.9996944,28 C7.08356926,28 2.49700803,25.4203429 0.029834093,21.2676919 C-0.00994469767,21.200742 -0.00994469767,21.1175485 0.029834093,21.0505986 C1.76721167,18.124997 4.54506018,15.9560392 7.85181104,14.9430101 C7.9280352,14.9195227 8.01159289,14.939498 8.06848323,14.995253 C9.34562686,16.2389849 11.4939038,17.6221043 12.0039168,17.9441224 C12.4817067,17.6618353 14.3928665,16.4931751 15.9309056,14.995253 C15.9880182,14.939498 16.0709092,14.9195227 16.1475778,14.9430101 C19.4538842,15.9558197 22.231955,18.1247775 23.9699992,21.0503791 Z M19.3818824,22.6497138 L19.3818824,21.3612023 C19.3818824,21.2428875 19.2678795,21.1427919 19.1483209,21.1427919 L17.6636164,21.1427919 C17.5436134,21.1427919 17.4276104,21.0508181 17.4276104,20.9322838 L17.4276104,19.4244839 C17.4276104,19.3061691 17.3489418,19.2128782 17.2293832,19.2128782 L15.9233499,19.2128782 C15.8035691,19.2128782 15.6906773,19.3061691 15.6906773,19.4244839 L15.6906773,20.9278937 C15.6906773,21.0464279 15.6088974,21.1430114 15.4891166,21.1430114 L13.9557442,21.1430114 C13.8359634,21.1430114 13.7368498,21.2384974 13.7368498,21.3568122 L13.7368498,22.6497138 C13.7368498,22.7678091 13.8359634,22.8584659 13.9557442,22.8584659 L15.4891166,22.8584659 C15.6088974,22.8584659 15.6906773,22.9603175 15.6911218,23.0786323 L15.6911218,24.580286 C15.6911218,24.6983813 15.8040135,24.7885991 15.9237944,24.7885991 L17.2440502,24.7885991 C17.363831,24.7885991 17.4278327,24.6983813 17.4278327,24.580286 L17.4278327,23.0786323 C17.4278327,22.960098 17.5585026,22.8584659 17.6782835,22.8584659 L19.1483209,22.8584659 C19.2678795,22.8584659 19.3818824,22.7680286 19.3818824,22.6497138 Z" id="Combined-Shape"></path>
        </g>
    </g>
</svg>