<?xml version="1.0" encoding="UTF-8"?>
<svg width="36px" height="36px" viewBox="0 0 36 36" version="1.1" xmlns="http://www.w3.org/2000/svg" xmlns:xlink="http://www.w3.org/1999/xlink">
    <!-- Generator: Sketch 51.3 (57544) - http://www.bohemiancoding.com/sketch -->
    <title>clinic-tab/4</title>
    <desc>Created with Sketch.</desc>
    <defs></defs>
    <g id="clinic-tab/4" stroke="none" stroke-width="1" fill="none" fill-rule="evenodd">
        <path d="M29.3,6 L7.7,6 C6.215,6 5.0135,7.215 5.0135,8.7 L5,32 L10.4,26.6 L29.3,26.6 C30.785,26.6 32,25.385 32,23.9 L32,8.7 C32,7.215 30.785,6 29.3,6 Z M11.75,14.45 L25.25,14.45 C25.9925,14.45 26.6,15.0575 26.6,15.8 C26.6,16.5425 25.9925,17.15 25.25,17.15 L11.75,17.15 C11.0075,17.15 10.4,16.5425 10.4,15.8 C10.4,15.0575 11.0075,14.45 11.75,14.45 Z M19.85,21.2 L11.75,21.2 C11.0075,21.2 10.4,20.5925 10.4,19.85 C10.4,19.1075 11.0075,18.5 11.75,18.5 L19.85,18.5 C20.5925,18.5 21.2,19.1075 21.2,19.85 C21.2,20.5925 20.5925,21.2 19.85,21.2 Z M25.25,13.1 L11.75,13.1 C11.0075,13.1 10.4,12.4925 10.4,11.75 C10.4,11.0075 11.0075,10.4 11.75,10.4 L25.25,10.4 C25.9925,10.4 26.6,11.0075 26.6,11.75 C26.6,12.4925 25.9925,13.1 25.25,13.1 Z" id="🔹Icon-Color" fill="#809AA7"></path>
    </g>
</svg>