<?xml version="1.0" encoding="UTF-8"?>
<svg width="70px" height="70px" viewBox="0 0 70 70" version="1.1" xmlns="http://www.w3.org/2000/svg" xmlns:xlink="http://www.w3.org/1999/xlink">
    <!-- Generator: Sketch 51.3 (57544) - http://www.bohemiancoding.com/sketch -->
    <title>fb</title>
    <desc>Created with Sketch.</desc>
    <defs></defs>
    <g id="Project" stroke="none" stroke-width="1" fill="none" fill-rule="evenodd">
        <g id="1-page-home-1" transform="translate(-427.000000, -6538.000000)">
            <g id="Group-22" transform="translate(0.000000, 6346.000000)">
                <g id="fb" transform="translate(427.000000, 192.000000)">
                    <circle id="Oval-3-Copy-3" fill="#425EAC" cx="35" cy="35" r="35"></circle>
                    <path d="M40.4728011,22.0052017 L37.1148377,22 C33.342281,22 30.9042891,24.4148747 30.9042891,28.1525337 L30.9042891,30.9892638 L27.5280071,30.9892638 C27.2362562,30.9892638 27,31.217617 27,31.4992874 L27,35.6093859 C27,35.8910563 27.2365256,36.1191494 27.5280071,36.1191494 L30.9042891,36.1191494 L30.9042891,46.4902365 C30.9042891,46.7719068 31.1405453,47 31.4322962,47 L35.8373838,47 C36.1291347,47 36.3653909,46.7716467 36.3653909,46.4902365 L36.3653909,36.1191494 L40.313052,36.1191494 C40.6048029,36.1191494 40.8410591,35.8910563 40.8410591,35.6093859 L40.8426754,31.4992874 C40.8426754,31.364044 40.7869114,31.2345224 40.6880448,31.1388117 C40.5891782,31.043101 40.4544825,30.9892638 40.314399,30.9892638 L36.3653909,30.9892638 L36.3653909,28.5845323 C36.3653909,27.4287215 36.6506764,26.8419733 38.210183,26.8419733 L40.4722623,26.8411931 C40.7637438,26.8411931 41,26.6128398 41,26.3314295 L41,22.5149652 C41,22.233815 40.7640132,22.0057218 40.4728011,22.0052017 Z" id="Shape" fill="#FFFFFF" fill-rule="nonzero"></path>
                </g>
            </g>
        </g>
    </g>
</svg>