<?xml version="1.0" encoding="UTF-8"?>
<svg width="70px" height="70px" viewBox="0 0 70 70" version="1.1" xmlns="http://www.w3.org/2000/svg" xmlns:xlink="http://www.w3.org/1999/xlink">
    <!-- Generator: Sketch 51.3 (57544) - http://www.bohemiancoding.com/sketch -->
    <title>telegram</title>
    <desc>Created with Sketch.</desc>
    <defs>
        <linearGradient x1="50%" y1="0%" x2="50%" y2="100%" id="linearGradient-1">
            <stop stop-color="#00E7FF" offset="0%"></stop>
            <stop stop-color="#00D6FF" offset="100%"></stop>
        </linearGradient>
        <linearGradient x1="100%" y1="62.5133157%" x2="35.4508157%" y2="33.221712%" id="linearGradient-2">
            <stop stop-color="#E5E5E5" offset="0%"></stop>
            <stop stop-color="#C7C7C7" offset="100%"></stop>
        </linearGradient>
    </defs>
    <g id="Project" stroke="none" stroke-width="1" fill="none" fill-rule="evenodd">
        <g id="1-page-home-1" transform="translate(-1092.000000, -6538.000000)">
            <g id="Group-22" transform="translate(0.000000, 6346.000000)">
                <g id="telegram" transform="translate(1092.000000, 192.000000)">
                    <circle id="Oval-3-Copy-7" fill="url(#linearGradient-1)" cx="35" cy="35" r="35"></circle>
                    <path d="M34.7842006,42.3264584 L29.725967,47.7508148 C29.5745748,47.8485499 29.3776994,48.0929422 28.9687539,47.9625743 C28.7567847,47.8811283 28.4992818,47.6204469 28.4538995,47.3272957 L28.4538995,47.3110065 L27,37.9610082 L28.1813028,37 C28.3342599,37.0964863 31.2532657,38.9375455 31.0738062,38.8243899 L34.7841501,41.1700341 C35.0719415,41.4957637 35.0719415,42.0007287 34.7842006,42.3264584 Z" id="Shape" fill="url(#linearGradient-2)" fill-rule="nonzero"></path>
                    <path d="M47.9840144,22.9713809 L43.0070174,47.352697 C42.9577987,47.6116182 42.7609238,47.8381742 42.498424,47.9352697 C42.3999865,47.9838174 42.3015491,48 42.2031117,48 C42.0390493,48 41.8749869,47.9514523 41.7273307,47.8543568 C41.5622839,47.738058 29.4740021,39.2212763 30.2429626,39.7630689 C22.923592,36.1867196 26.7414881,38.0664337 20.4593747,34.9730265 C20.1640624,34.8273833 20,34.5360969 20,34.228628 C20.0164062,33.9049765 20.1968749,33.6298727 20.4921872,33.5004121 L46.8519839,22.0651567 C47.13089,21.9518786 47.4590148,21.9842438 47.6887021,22.1784347 C47.7215146,22.2107999 47.7707333,22.2593476 47.8035458,22.2917127 C47.9676082,22.4859036 48.0332332,22.7286423 47.9840144,22.9713809 Z" id="Shape" fill="#FFFFFF" fill-rule="nonzero"></path>
                    <path d="M47.0382863,23 L31.3003273,39.3158506 L30.4351495,40.1666545 L29.0311336,48.1552509 C28.8026361,48.0764679 28.5250544,47.8243098 28.4761334,47.5407435 L27,38.4658058 L28.182281,37.5511114 L47.0382863,23 Z" id="Shape" fill="#E7E7E7" fill-rule="nonzero"></path>
                </g>
            </g>
        </g>
    </g>
</svg>