<?xml version="1.0" encoding="UTF-8"?>
<svg width="70px" height="70px" viewBox="0 0 70 70" version="1.1" xmlns="http://www.w3.org/2000/svg" xmlns:xlink="http://www.w3.org/1999/xlink">
    <!-- Generator: Sketch 51.3 (57544) - http://www.bohemiancoding.com/sketch -->
    <title>twitter</title>
    <desc>Created with Sketch.</desc>
    <defs></defs>
    <g id="Project" stroke="none" stroke-width="1" fill="none" fill-rule="evenodd">
        <g id="1-page-home-1" transform="translate(-649.000000, -6538.000000)">
            <g id="Group-22" transform="translate(0.000000, 6346.000000)">
                <g id="twitter" transform="translate(649.000000, 192.000000)">
                    <circle id="Oval-3-Copy-4" fill="#1DADEB" cx="35" cy="35" r="35"></circle>
                    <path d="M47.6503298,27.4395493 C46.7066114,27.8537127 45.6923547,28.1326391 44.627866,28.2583673 C45.7147987,27.6149348 46.5495032,26.5953744 46.9417395,25.3803542 C45.9253452,25.9762423 44.7988682,26.4094235 43.5997152,26.6429186 C42.6410342,25.6318105 41.2719478,25 39.7585784,25 C36.3609784,25 33.8643463,28.1336956 34.6317187,31.3867802 C30.2594062,31.1701896 26.3819313,29.0993726 23.7859042,25.9519419 C22.407199,28.2900634 23.0709013,31.3487448 25.4136314,32.8976314 C24.5522078,32.8701614 23.7399474,32.6366662 23.031357,32.2468032 C22.9736438,34.6567694 24.7210725,36.9114243 27.251905,37.4132805 C26.5112518,37.6119099 25.7000601,37.6583976 24.8749745,37.5020298 C25.5440206,39.5686207 27.4870331,41.0720762 29.7912877,41.1143377 C27.5789467,42.829101 24.7916109,43.5950921 22,43.2696779 C24.3288362,44.7456634 27.0958655,45.6067429 30.0670287,45.6067429 C39.8376669,45.6067429 45.3578316,37.4492028 45.0243773,30.132668 C46.052528,29.3983732 46.9449458,28.4823536 47.6503298,27.4395493 Z" id="🔹-Icon-Color" fill="#FFFFFF"></path>
                </g>
            </g>
        </g>
    </g>
</svg>